# File created by Blade
# Date/Time:  Tue Jan 27 19:18:41 2015
# Frame Rate: 120.000 fps
#------------------------------------------------------
:FULLY-SPECIFIED
:DEGREES
3374
root 1.438821 32.242485 0.527520 -0.824075 -28.209513 -2.608997
Spine 4.167401 -18.388076 -8.194772
Head 19.290824 19.387218 14.151460
LeftShoulder -14.810253 5.457150 29.929410
LeftArm -11.820972 34.743886 -107.536381
LeftForeArm 7.228194 -0.000000 19.490931
LeftHand 9.776538 -0.000000 -3.981183
LeftHandThumb1 -26.253704 0.000000 33.147579
RightShoulder -31.660403 -24.020393 -39.012235
RightArm -40.730760 66.768951 11.964058
RightForeArm 21.138569 0.000000 102.703362
RightHand 27.563626 0.000000 -28.720109
RightHandThumb1 -24.326973 -0.000000 -32.862282
LeftUpLeg 17.179268 24.469058 8.512070
LeftLeg -2.612891 -0.000000 0.000000
LeftFoot -18.499172 14.988110 -28.053981
LeftToeBase 16.548280 -0.000000 -0.000000
RightUpLeg 1.790929 13.266563 8.928190
RightLeg 7.751878 -0.000000 -0.000000
RightFoot -9.046732 -8.562628 8.959835
RightToeBase 11.860774 -0.000000 -0.000000
3375
root 1.428166 32.241861 0.513764 -0.758550 -28.485406 -2.649026
Spine 4.188657 -18.451558 -8.330397
Head 19.314044 19.629030 14.420944
LeftShoulder -14.840147 5.469757 29.996516
LeftArm -11.960020 34.753330 -107.654964
LeftForeArm 7.172324 -0.000000 19.488673
LeftHand 9.904603 0.000000 -3.972063
LeftHandThumb1 -26.253704 0.000000 33.147579
RightShoulder -31.735251 -24.083756 -38.877053
RightArm -40.910922 66.741197 11.983045
RightForeArm 21.318645 -0.000000 102.755564
RightHand 27.555199 -0.000000 -28.594219
RightHandThumb1 -24.326973 -0.000000 -32.862282
LeftUpLeg 17.243257 24.658542 8.564706
LeftLeg -2.707530 -0.000000 0.000000
LeftFoot -18.488280 15.065819 -28.089437
LeftToeBase 16.480051 -0.000000 -0.000000
RightUpLeg 1.717910 13.363003 8.965841
RightLeg 7.762926 -0.000000 -0.000000
RightFoot -8.972120 -8.425201 8.932270
RightToeBase 12.017350 -0.000000 -0.000000
3376
root 1.417709 32.240442 0.495408 -0.669177 -28.808814 -2.689651
Spine 4.182386 -18.450236 -8.461161
Head 19.326853 19.824969 14.686066
LeftShoulder -14.862090 5.511876 30.041402
LeftArm -12.065603 34.771926 -107.698161
LeftForeArm 7.215548 -0.000000 19.590674
LeftHand 9.959165 -0.000000 -4.116076
LeftHandThumb1 -26.253704 0.000000 33.147579
RightShoulder -31.830782 -24.192374 -38.744927
RightArm -40.930793 66.763653 12.189841
RightForeArm 21.394128 -0.000000 102.797328
RightHand 27.636250 -0.000000 -28.464208
RightHandThumb1 -24.326973 -0.000000 -32.862282
LeftUpLeg 17.286791 24.915640 8.625836
LeftLeg -2.795307 -0.000000 0.000000
LeftFoot -18.567796 15.077070 -28.309012
LeftToeBase 16.767999 -0.000000 -0.000000
RightUpLeg 1.583515 13.522953 8.998278
RightLeg 7.835011 -0.000000 -0.000000
RightFoot -8.906125 -8.281127 8.877874
RightToeBase 12.120974 -0.000000 -0.000000
3377
root 1.407651 32.239380 0.482951 -0.599454 -29.089772 -2.742746
Spine 4.193433 -18.500978 -8.579720
Head 19.364097 20.057441 14.961036
LeftShoulder -14.898814 5.574888 30.091147
LeftArm -12.179231 34.788208 -107.786030
LeftForeArm 7.207212 -0.000000 19.707758
LeftHand 10.084092 0.000000 -4.035436
LeftHandThumb1 -26.253704 0.000000 33.147579
RightShoulder -31.858998 -24.225656 -38.640745
RightArm -41.033768 66.754535 12.287931
RightForeArm 21.520386 -0.000000 102.860656
RightHand 27.662799 -0.000000 -28.321509
RightHandThumb1 -24.326973 -0.000000 -32.862282
LeftUpLeg 17.349069 25.128220 8.696490
LeftLeg -2.858476 -0.000000 0.000000
LeftFoot -18.488415 15.152248 -28.173041
LeftToeBase 16.511833 -0.000000 -0.000000
RightUpLeg 1.502369 13.628864 9.037615
RightLeg 7.867985 -0.000000 -0.000000
RightFoot -8.818298 -8.105245 8.855317
RightToeBase 12.092013 -0.000000 -0.000000
3378
root 1.396752 32.238228 0.471142 -0.532730 -29.361402 -2.789062
Spine 4.198185 -18.519856 -8.696398
Head 19.383514 20.242190 15.215988
LeftShoulder -14.927522 5.590934 30.144364
LeftArm -12.288624 34.891843 -107.872735
LeftForeArm 6.990335 0.000000 19.781354
LeftHand 10.080968 -0.000000 -4.074533
LeftHandThumb1 -26.253704 0.000000 33.147579
RightShoulder -31.899425 -24.242085 -38.549669
RightArm -41.141112 66.680176 12.358583
RightForeArm 21.523327 -0.000000 102.911985
RightHand 27.697507 0.000000 -28.321164
RightHandThumb1 -24.326973 -0.000000 -32.862282
LeftUpLeg 17.406905 25.267715 8.741748
LeftLeg -2.939029 -0.000000 0.000000
LeftFoot -18.510249 15.251273 -28.229047
LeftToeBase 16.503201 -0.000000 -0.000000
RightUpLeg 1.424283 13.762197 9.076429
RightLeg 7.899543 -0.000000 -0.000000
RightFoot -8.743678 -7.963819 8.851882
RightToeBase 12.121357 -0.000000 -0.000000
3379
root 1.386814 32.237113 0.460978 -0.470380 -29.623822 -2.834159
Spine 4.205928 -18.541953 -8.801965
Head 19.402749 20.473640 15.380133
LeftShoulder -14.964572 5.616788 30.167597
LeftArm -12.385732 34.946944 -107.930829
LeftForeArm 7.151094 -0.000000 19.938561
LeftHand 9.826847 -0.000000 -4.003003
LeftHandThumb1 -26.253704 0.000000 33.147579
RightShoulder -31.976393 -24.328899 -38.417614
RightArm -41.135563 66.756703 12.535532
RightForeArm 21.580010 -0.000000 102.974602
RightHand 27.860550 -0.000000 -28.010942
RightHandThumb1 -24.326973 -0.000000 -32.862282
LeftUpLeg 17.474491 25.427706 8.799796
LeftLeg -3.023315 -0.000000 0.000000
LeftFoot -18.594148 15.306485 -28.406389
LeftToeBase 16.783795 -0.000000 -0.000000
RightUpLeg 1.350621 13.884141 9.114430
RightLeg 7.937359 -0.000000 -0.000000
RightFoot -8.677047 -7.823089 8.833987
RightToeBase 12.210088 -0.000000 -0.000000
3380
root 1.377156 32.235514 0.452329 -0.422027 -29.855143 -2.884582
Spine 4.219754 -18.559438 -8.894645
Head 19.457391 20.642673 15.557028
LeftShoulder -14.958276 5.610424 30.182394
LeftArm -12.535712 35.092080 -108.018690
LeftForeArm 6.939615 -0.000000 20.094049
LeftHand 9.771538 -0.000000 -3.663447
LeftHandThumb1 -26.253704 0.000000 33.147579
RightShoulder -32.016572 -24.401246 -38.305993
RightArm -41.211175 66.742380 12.617853
RightForeArm 21.560053 -0.000000 103.050018
RightHand 27.768731 -0.000000 -28.130114
RightHandThumb1 -24.326973 -0.000000 -32.862282
LeftUpLeg 17.540188 25.528700 8.851837
LeftLeg -3.088464 -0.000000 0.000000
LeftFoot -18.629237 15.413133 -28.454854
LeftToeBase 16.729610 -0.000000 -0.000000
RightUpLeg 1.294868 13.973325 9.163303
RightLeg 7.979442 -0.000000 -0.000000
RightFoot -8.604691 -7.721339 8.740714
RightToeBase 12.178008 -0.000000 -0.000000
